<?xml version="1.0" standalone="no"?>
<!DOCTYPE svg PUBLIC "-//W3C//DTD SVG 1.1//EN" "http://www.w3.org/Graphics/SVG/1.1/DTD/svg11.dtd" >
<svg xmlns="http://www.w3.org/2000/svg" xmlns:xlink="http://www.w3.org/1999/xlink" version="1.1">
<metadata></metadata>
<defs>
<font id="typographbold" horiz-adv-x="938" >
<font-face units-per-em="2048" ascent="1505" descent="-543" />
<missing-glyph horiz-adv-x="453" />
<glyph horiz-adv-x="0" />
<glyph unicode="&#xd;" horiz-adv-x="453" />
<glyph unicode=" "  horiz-adv-x="453" />
<glyph unicode="&#x09;" horiz-adv-x="453" />
<glyph unicode="&#xa0;" horiz-adv-x="453" />
<glyph unicode="!" horiz-adv-x="502" d="M102 1022q-6 75 31 123.5t111 48.5t111 -56q32 -50 26 -126l-59 -717h-160zM119 0v178h241v-178h-241z" />
<glyph unicode="&#x22;" horiz-adv-x="741" d="M51 836q113 158 168 396q116 -53 180 -137q-37 -86 -109 -187q-79 -110 -147 -156q-62 26 -92 84zM357 836q113 158 168 396q116 -53 180 -137q-41 -97 -124 -205q-77 -100 -133 -138q-62 28 -91 84z" />
<glyph unicode="#" horiz-adv-x="973" d="M39 358q2 64 22 166h146l26 162h-149q2 61 22 164h156l29 174q63 8 92 8q41 0 94 -8l-28 -174h143l26 174q63 8 93 8q41 0 94 -8l-27 -174h131q0 -55 -4 -98l-18 -66h-139l-27 -162h143q0 -73 -24 -166h-146l-28 -174q-43 -4 -80 -4q-47 0 -107 4l29 174h-143l-27 -174 q-43 -4 -80 -4q-47 0 -106 4l26 174h-139zM391 524h141l27 162h-141z" />
<glyph unicode="$" horiz-adv-x="1001" d="M119 246q46 46 186 59q17 -64 113 -133l-2 297q-289 104 -289 295q0 116 91 188q76 62 200 80v98h164l2 -98q228 -55 299 -248q-47 -46 -187 -59q-30 115 -114 131l2 -295q111 -40 182 -107q86 -83 86 -186q0 -216 -270 -268v-104h-164v100q-228 52 -299 250zM334 757 q0 -83 84 -126v233h-2q-37 -5 -59.5 -37t-22.5 -70zM580 403l2 -237h3q35 0 57 38q18 33 18 70q0 83 -80 129z" />
<glyph unicode="%" horiz-adv-x="1266" d="M92 756v52q0 106 65 173.5t170 67.5t170 -67.5t65 -173.5v-52q0 -106 -65 -177t-170 -71t-170 71t-65 177zM199 0l659 1028h205l-655 -1028h-209zM272 733q0 -103 55 -103t55 103v92q0 103 -55 103q-28 0 -44 -50q-11 -37 -11 -73v-72zM704 230v52q0 105 65 172.5 t170 67.5t170 -67.5t65 -172.5v-52q0 -105 -64 -176q-67 -73 -171 -73q-105 0 -171 73q-64 70 -64 176zM884 206q0 -102 55 -102t55 102v93q0 102 -55 102t-55 -123v-72z" />
<glyph unicode="&#x26;" horiz-adv-x="1421" d="M113 -2v772q0 111 110 111h443q144 0 225.5 -76t81.5 -219v-262h-219v256q0 62 -33 102q-36 43 -96 43h-287v-727h-225zM420 578h223l43 -422h211q186 0 186 182v545h226v-549q0 -163 -106 -252q-99 -82 -265 -82h-365q-103 0 -112 106z" />
<glyph unicode="'" horiz-adv-x="430" d="M51 836q113 158 168 396q116 -53 180 -137q-37 -86 -109 -187q-79 -110 -147 -156q-62 26 -92 84z" />
<glyph unicode="(" horiz-adv-x="494" d="M61 512q0 143 46 311q50 183 133 299h213q-68 -130 -118 -296q-56 -186 -56 -312q0 -295 176 -610h-213q-84 114 -134 290q-47 164 -47 318z" />
<glyph unicode=")" horiz-adv-x="494" d="M39 -96q178 319 178 610q0 124 -58 312q-50 165 -118 296l213 2q82 -117 131 -292q47 -166 47 -318q0 -150 -44 -313q-49 -182 -134 -297h-215z" />
<glyph unicode="*" horiz-adv-x="922" d="M148 854l220 92l-220 84q13 33 37 78q18 35 39 66l190 -142l-34 230q39 5 87 5q33 0 85 -3l-45 -232l186 142q14 -23 41 -64q11 -27 39 -80l-220 -84l220 -92q-9 -24 -37 -74q-20 -35 -43 -63l-186 147l37 -229q-13 -1 -28 -1h-28q-37 1 -28 1h-2q-8 0 -24.5 -1t-24.5 -1 q-14 0 -25 2l30 227l-190 -145q-6 9 -37 51q-11 30 -39 86z" />
<glyph unicode="+" horiz-adv-x="860" d="M99 514q0 38 3 80h242v242q44 5 87 5t85 -5v-242h240q4 -35 4 -73q0 -47 -6 -99h-238v-238q-31 -4 -75 -4q-43 0 -97 4v238h-240q-5 42 -5 92z" />
<glyph unicode="," horiz-adv-x="410" d="M-20 -138q92 128 161 368q114 -55 167 -112q-37 -87 -104 -182q-75 -108 -140 -152q-69 42 -84 78z" />
<glyph unicode="-" horiz-adv-x="860" d="M98 516q0 19 4 78h654q6 -55 6 -70q0 -31 -8 -102h-650q-6 51 -6 94z" />
<glyph unicode="." horiz-adv-x="410" d="M86 0v199h201v-199h-201z" />
<glyph unicode="/" horiz-adv-x="821" d="M33 0l532 1028h213l-532 -1028h-213z" />
<glyph unicode="0" d="M61 358v308q0 186 112 287q108 96 296 96t296 -96q112 -101 112 -287v-308q0 -186 -112 -287q-108 -96 -296 -96t-296 96q-112 101 -112 287zM322 326q0 -176 147 -176t147 176v372q0 176 -147 176t-147 -176v-372z" />
<glyph unicode="1" d="M118 664q0 26 5 55q96 33 200 127q97 87 152 182h232v-1028h-246v778q-137 -185 -314 -254q-29 111 -29 140z" />
<glyph unicode="2" d="M75 939q68 53 203 84q115 26 220 26q163 0 266 -86q110 -92 110 -252q0 -122 -87 -236q-74 -99 -193 -168l-225 -131h469q7 -62 7 -104q0 -19 -7 -72h-648q-47 0 -80.5 32.5t-33.5 78.5q0 81 79 137l320 228q137 98 137 218q0 86 -60 133q-55 43 -144 43q-119 0 -236 -80 q-70 85 -97 149z" />
<glyph unicode="3" d="M75 73q27 65 97 150q102 -70 256 -70q75 0 125 38q55 41 55 114q0 66 -48.5 107t-115.5 41h-84q-20 50 -20 92q0 33 20 84h64q63 0 109 27q55 33 55 92q0 122 -180 122q-128 0 -236 -74q-70 85 -97 150q134 102 377 102q163 0 267 -60q129 -73 129 -224q0 -175 -203 -225 q102 -14 163 -75q64 -65 64 -165q0 -156 -126 -247q-112 -81 -274 -81q-264 0 -397 102z" />
<glyph unicode="4" d="M22 232q0 46 27 81q277 357 373 715h211q43 0 43 -23q-2 -9 -12 -40q-49 -145 -154 -340t-199 -316h252v246q109 56 242 74v-320h74q6 -61 6 -93q0 -11 -6 -73h-74v-143h-242v143h-448q-93 0 -93 89z" />
<glyph unicode="5" d="M75 73q27 65 97 150q102 -70 236 -70q92 0 151 53t59 144q0 80 -48 131t-127 51q-66 0 -117 -59q-39 -2 -73 -2q-102 0 -164 16l85 461q9 46 22 61q17 19 62 19h512q11 -54 11 -80q0 -41 -11 -96h-364l-41 -207q60 46 167 47q139 1 233 -79q107 -91 107 -255 q0 -177 -111 -283t-289 -106q-261 0 -397 104z" />
<glyph unicode="6" d="M57 340v258q0 192 117 320q121 131 311 131q226 0 357 -101q-27 -64 -97 -149q-96 65 -231 65q-96 0 -157 -80q-56 -75 -50 -173q82 69 201 69q165 0 265 -87q106 -92 106 -255q0 -172 -121 -273q-114 -94 -289 -94q-172 0 -288 97q-124 103 -124 272zM296 340 q0 -75 48.5 -131t122.5 -56t123.5 56t49.5 131t-48 131q-51 58 -125 58t-122.5 -57t-48.5 -132z" />
<glyph unicode="7" d="M75 942q0 13 7 86h692q43 0 75.5 -29.5t32.5 -71.5q0 -39 -30 -71q-336 -359 -336 -856h-217q-33 0 -33 37q0 182 86 414q92 249 232 403l-504 -2q-5 52 -5 90z" />
<glyph unicode="8" d="M47 270q0 209 200 267q-180 47 -180 231q0 149 133 226q108 62 269 62t269 -62q133 -77 133 -226q0 -170 -180 -231q94 -18 148 -96q52 -73 52 -171q0 -163 -136 -242q-111 -65 -286 -65t-286 65q-136 79 -136 242zM281 295q0 -70 60 -116q56 -41 128 -41t128 41 q60 46 60 116t-60 116q-56 41 -128 41t-128 -41q-60 -46 -60 -116zM301 739q0 -64 53 -107q49 -39 115 -39t115 39q53 43 53 107q0 65 -53 107q-49 39 -115 39t-115 -39q-53 -42 -53 -107z" />
<glyph unicode="9" d="M58 680q0 172 122 272q113 94 288 94q173 0 289 -96q123 -103 123 -272v-258q0 -192 -117 -320q-121 -131 -311 -131q-226 0 -357 100q27 65 97 150q96 -66 231 -66q95 0 156 81q57 77 51 173q-82 -69 -201 -69q-166 0 -266 87q-105 92 -105 255zM297 677 q0 -75 49.5 -132t123.5 -57t124 58q47 56 47 131t-47 130q-50 57 -124 57t-123.5 -56t-49.5 -131z" />
<glyph unicode=":" horiz-adv-x="426" d="M102 0v199h201v-199h-201zM102 606v198h201v-198h-201z" />
<glyph unicode=";" horiz-adv-x="431" d="M0 -138q92 128 162 368q113 -55 166 -112q-37 -86 -103 -181q-76 -110 -140 -153q-69 41 -85 78zM106 606v198h201v-198h-201z" />
<glyph unicode="&#x3c;" horiz-adv-x="860" d="M82 507q0 68 65 105l551 310q67 -93 86 -164l-458 -244l460 -225q-13 -60 -94 -162l-547 289q-63 33 -63 91z" />
<glyph unicode="=" horiz-adv-x="860" d="M98 311q0 37 4 97h654q6 -56 6 -89q0 -10 -8 -81h-650q-6 51 -6 73zM98 680q0 39 4 98h654q6 -55 6 -90q0 -9 -8 -80h-650q-6 51 -6 72z" />
<glyph unicode="&#x3e;" horiz-adv-x="860" d="M76 758q19 81 88 162l549 -308q67 -38 67 -107q0 -58 -63 -91l-551 -287q-61 48 -88 162l457 225z" />
<glyph unicode="?" horiz-adv-x="926" d="M61 799q0 179 114 286t294 107q147 0 262 -75q131 -86 131 -226v-19q0 -185 -174 -299q-72 -47 -93 -75q-38 -50 -38 -144v-59h-244v67q0 202 201 318q100 58 100 172q0 71 -42 114.5t-113 43.5q-156 0 -156 -211h-242zM313 0v178h244v-178h-244z" />
<glyph unicode="@" horiz-adv-x="1886" d="M105 428q0 264 122 489q125 232 349 360.5t475 128.5q202 0 362 -79q176 -87 264 -254t88 -352q0 -169 -66 -330q-70 -173 -193 -272q-129 -104 -293 -104q-153 0 -181 121q16 64 56 104q-246 -226 -404 -226q-85 0 -136 77q-45 67 -45 156q0 156 104 345q86 156 217 296 q107 73 177 73q30 0 53 -13q140 0 202 -84l8 96l136 -24l-101 -393q-72 -280 -72 -338q0 -19 5 -29q-6 -20 -6 -33q0 -28 25 -28q17 0 45 13q20 -9 40 -9q74 0 152 121q92 40 144 157q73 164 73 342q-33 141 -105 309q-91 134 -245 212q-150 76 -315 76q-232 -64 -392 -160 q-223 -76 -264 -272q-157 -216 -157 -411q0 -35 5 -69q-8 -240 104 -408q61 -217 272 -256q140 -84 360 -112q55 -7 101 -7q231 0 395 151q211 105 256 400l124 -36q-93 -285 -331 -451q-234 -163 -536 -163q-241 0 -440 111q-205 114 -318.5 320.5t-113.5 454.5zM653 293 q19 -29 30 -95q29 24 49 24q23 0 36 -30q112 56 248 192q40 88 120 144q46 146 46 245q0 60 -32 100q-17 22 -44 22q-28 0 -66 -23q-80 8 -136 -136q-111 -13 -192 -211q-59 -145 -59 -232z" />
<glyph unicode="A" horiz-adv-x="1286" d="M28 0l366 1217q59 197 249 197t249 -197l366 -1217h-291l-114 458h-421l-114 -458h-290zM478 640h330l-130 525q-7 28 -35 28t-35 -28z" />
<glyph unicode="B" horiz-adv-x="1290" d="M140 168v1067q0 167 153 167h318q180 0 314 -82q158 -97 158 -267q0 -106 -60 -186t-161 -115q129 -28 220 -115q110 -106 110 -257q0 -183 -162 -289q-140 -91 -333 -91h-404q-153 0 -153 168zM411 210q0 -28 28 -28h166q123 0 203 47q99 57 99 171q0 113 -98 178 q-85 56 -204 56h-194v-424zM411 816h147q109 0 179 45q83 53 83 156q0 108 -88 161q-73 43 -188 43h-105q-28 0 -28 -28v-377z" />
<glyph unicode="C" horiz-adv-x="1271" d="M87 698q0 330 159 523q172 209 494 209q303 0 459 -173q-25 -71 -93 -156q-125 142 -296 142q-207 0 -328 -175q-108 -154 -108 -370q0 -215 108 -370q122 -174 328 -174q171 0 296 142q68 -85 93 -156q-156 -174 -459 -174q-321 0 -494 209q-159 194 -159 523z" />
<glyph unicode="D" horiz-adv-x="1422" d="M140 168v1067q0 167 178 167h321q308 0 502 -196.5t194 -504.5q0 -307 -194.5 -504t-501.5 -197h-321q-178 0 -178 168zM411 226q0 -50 52 -50h134q212 0 336 160q114 147 114 365q0 219 -113 365q-124 160 -337 160h-134q-52 0 -52 -50v-950z" />
<glyph unicode="E" horiz-adv-x="1053" d="M140 168v1067q0 167 153 167h662q3 -36 3 -83q0 -67 -5 -98h-514q-28 0 -28 -28v-385h387q6 -31 6 -98q0 -48 -3 -84h-390v-416q0 -28 28 -28h514q5 -31 5 -98q0 -48 -3 -84h-662q-153 0 -153 168z" />
<glyph unicode="F" horiz-adv-x="1022" d="M140 0v1235q0 167 153 167h662q3 -36 3 -83q0 -67 -5 -98h-514q-28 0 -28 -28v-385h359q6 -31 6 -98q0 -48 -3 -84h-362v-626h-271z" />
<glyph unicode="G" horiz-adv-x="1399" d="M87 673q0 305 184 527q191 230 472 230q285 0 520 -153q-9 -53 -92 -157q-161 123 -369 123q-217 0 -332 -186q-96 -155 -96 -386q0 -218 107 -361q119 -159 329 -159q100 0 201 39v389q0 28 -28 28h-235q-5 31 -5 98q0 48 2 84h383q154 0 154 -168v-509 q-221 -146 -514 -146q-307 0 -496 201q-185 197 -185 506z" />
<glyph unicode="H" horiz-adv-x="1457" d="M140 0v1402h271v-594h635v594h271v-1402h-271v626h-635v-626h-271z" />
<glyph unicode="I" horiz-adv-x="553" d="M140 0v1402h273v-1402h-273z" />
<glyph unicode="J" horiz-adv-x="890" d="M28 74q28 74 98 137q106 -77 175 -77q77 0 123 55q44 51 44 129v1086h283v-1058q0 -179 -102 -285t-281 -106q-236 0 -340 119z" />
<glyph unicode="K" horiz-adv-x="1284" d="M140 0v1402h271v-622q260 169 465 622h282q-31 -134 -177 -340q-138 -195 -264 -298q49 -111 220 -367q185 -276 305 -397h-333q-77 75 -185 288q-100 198 -155 366q-25 -24 -158 -84v-570h-271z" />
<glyph unicode="L" horiz-adv-x="930" d="M140 168v1234h271v-1192q0 -28 28 -28h458q5 -31 5 -98q0 -48 -2 -84h-607q-153 0 -153 168z" />
<glyph unicode="M" horiz-adv-x="1721" d="M140 0v1158q0 111 66 178.5t177 67.5q117 0 179 -41q69 -45 97 -154l183 -708q5 -19 19 -19t19 19l183 708q28 109 97 154q62 41 179 41q111 0 177 -67.5t66 -178.5v-1158h-264v1153q0 37 -23 37q-30 0 -40 -37l-188 -717q-44 -169 -206 -169q-161 0 -206 169l-189 717 q-10 37 -39 37q-24 0 -24 -37v-1153h-263z" />
<glyph unicode="N" horiz-adv-x="1509" d="M140 0v1189q0 100 56 157.5t156 57.5q111 0 173 -32q72 -38 112 -133l417 -1002q12 -28 26 -28q19 0 19 28v1165h271v-1188q0 -100 -66 -158q-62 -56 -164 -56q-106 0 -164 33q-65 36 -104 130l-417 1002q-12 28 -26 28q-18 0 -18 -28v-1165h-271z" />
<glyph unicode="O" horiz-adv-x="1564" d="M87 704q0 308 185 519q196 224 510 224q313 0 510 -224q186 -212 186 -519q0 -314 -189 -526q-196 -220 -507 -220q-314 0 -510 225q-185 212 -185 521zM372 704q0 -206 92 -364q113 -195 318 -195t319 195q92 158 92 364q0 207 -92 363q-114 193 -319 193t-318 -193 q-92 -157 -92 -363z" />
<glyph unicode="P" horiz-adv-x="1170" d="M140 0v1235q0 167 153 167h346q198 0 327 -95q145 -106 145 -298q0 -184 -156 -290q-137 -93 -330 -93h-214v-626h-271zM411 808h175q109 0 179 45q83 53 83 156q0 108 -88 164q-75 48 -188 48h-133q-28 0 -28 -28v-385z" />
<glyph unicode="Q" horiz-adv-x="1630" d="M87 704q0 308 185 519q196 224 510 224q313 0 510 -224q186 -212 186 -519q0 -103 -40 -226.5t-100 -208.5q54 -58 261 -269h-304q-27 28 -94 113q-145 -155 -419 -155q-314 0 -510 225q-185 212 -185 521zM372 704q0 -206 92 -364q113 -195 318 -195q177 0 287 147 q-138 201 -198 334h179q51 -77 109 -151q34 113 34 229q0 207 -92 363q-114 193 -319 193t-318 -193q-92 -157 -92 -363z" />
<glyph unicode="R" horiz-adv-x="1256" d="M140 0v1235q0 167 153 167h346q199 0 327 -90q145 -104 145 -295q0 -152 -109 -253q-97 -90 -254 -121q46 -105 191 -307q150 -209 275 -336h-333q-63 65 -174 265q-118 213 -166 361h-130v-626h-271zM411 808h175q109 0 179 45q83 53 83 156q0 108 -88 164 q-75 48 -188 48h-133q-28 0 -28 -28v-385z" />
<glyph unicode="S" horiz-adv-x="1185" d="M95 119q6 29 38 80q30 48 54 71q177 -125 313 -125q113 0 193 45q98 55 98 160q0 205 -284 299q-394 131 -394 415q0 178 140 277q124 87 309 87q144 0 245 -36q62 -22 183 -94q-6 -29 -37 -78.5t-55 -72.5q-138 98 -285 98q-210 0 -210 -183q0 -159 265 -252 q422 -149 422 -460q0 -201 -163 -303q-136 -85 -349 -85q-297 0 -483 157z" />
<glyph unicode="T" horiz-adv-x="1107" d="M28 1315q0 53 3 90h1045q3 -37 3 -90q0 -64 -6 -95h-366v-1220h-282v1220h-391q-6 31 -6 95z" />
<glyph unicode="U" horiz-adv-x="1528" d="M117 620v782h274v-737q0 -207 78 -343q98 -171 294 -171q194 0 290 172q76 137 76 342v737h282v-726q0 -315 -164 -507q-174 -205 -484 -205q-314 0 -490 203q-156 180 -156 453z" />
<glyph unicode="V" horiz-adv-x="1286" d="M28 1402h290l290 -1165q7 -27 35 -27t35 27l289 1165h291l-366 -1244q-50 -169 -249 -169t-249 169z" />
<glyph unicode="W" horiz-adv-x="1917" d="M70 1403h279l190 -1153q3 -18 19 -18t19 18l176 957q36 197 206 197t206 -197l175 -957q3 -16 18 -16q17 0 20 17l190 1152h279l-237 -1158q-25 -121 -60 -179q-55 -88 -155 -88q-114 0 -170.5 50.5t-77.5 165.5l-170 948q-3 19 -19 19q-15 0 -18 -19l-170 -948 q-21 -115 -77 -165.5t-170 -50.5q-161 0 -216 267z" />
<glyph unicode="X" horiz-adv-x="1350" d="M28 0l469 672q16 23 16 49q0 27 -16 51l-428 630h274l332 -475l331 475h274l-423 -624q-19 -28 -19 -58q0 -27 15 -48l469 -672h-302l-345 509l-345 -509h-302z" />
<glyph unicode="Y" horiz-adv-x="1174" d="M28 1402h290l234 -578q11 -27 35 -27t35 27l233 578h291l-310 -658q-42 -89 -112 -140v-604h-274v605q-71 52 -112 139z" />
<glyph unicode="Z" horiz-adv-x="1102" d="M73 119q0 54 31 105l585 954q9 15 9 25q0 18 -30 18h-570q-6 31 -6 98q0 47 3 83h794q127 0 127 -124q0 -51 -30 -99l-593 -954q-10 -16 -10 -25q0 -18 31 -18h578q6 -31 6 -98q0 -48 -3 -84h-793q-129 0 -129 119z" />
<glyph unicode="[" horiz-adv-x="696" d="M102 33v1044q0 217 134 333q126 110 346 110h61q12 -45 12 -72q0 -29 -12 -90h-22q-259 0 -259 -246v-1120q0 -242 259 -242h26l6 -90q0 -27 -6 -72h-65q-220 0 -347 111q-133 117 -133 334z" />
<glyph unicode="\" horiz-adv-x="565" d="M0 1194l184 2l372 -1200h-176z" />
<glyph unicode="]" horiz-adv-x="696" d="M41 1448q0 27 12 72h62q221 0 346 -110q133 -115 133 -333v-1044q0 -218 -133 -334q-126 -111 -346 -111h-66q-6 45 -6 72q0 7 6 90h27q258 0 258 242v1120q0 246 -258 246h-23q-12 61 -12 90z" />
<glyph unicode="^" horiz-adv-x="788" d="M27 436l317 701h107l317 -701h-160l-208 508l-232 -508h-141z" />
<glyph unicode="_" horiz-adv-x="1032" d="M-8 -128h1044l6 -130h-1042z" />
<glyph unicode="`" horiz-adv-x="682" d="M118 1390h223l106 -345l-55 -9z" />
<glyph unicode="a" horiz-adv-x="1178" d="M98 209q0 310 463 441q178 50 178 118q0 122 -219 122q-173 0 -308 -103q-52 65 -67 151q192 126 459 126q198 0 308 -94q117 -100 117 -297v-384q0 -150 52 -289h-275q-36 78 -36 163q-91 -133 -207 -177q-69 -26 -198 -26q-110 0 -187 69q-80 71 -80 180zM364 256 q0 -127 121 -127q124 0 206 96q79 92 79 218v163q-140 -83 -227 -112q-179 -60 -179 -238z" />
<glyph unicode="b" horiz-adv-x="1251" d="M98 0q41 93 41 284v1120h269v-517q111 145 284 145q195 0 329 -133q146 -144 146 -386q0 -220 -125 -378q-135 -170 -350 -170q-193 0 -285 174q0 -65 -27 -139h-282zM399 513q0 -138 54 -245q68 -135 193 -135t193 135q54 107 54 245q0 137 -54 233q-67 119 -193 119 t-193 -119q-54 -96 -54 -233z" />
<glyph unicode="c" horiz-adv-x="1089" d="M84 513q0 239 135 392q142 161 377 161q257 0 409 -129q-17 -55 -67 -151q-141 112 -277 112q-150 0 -232 -122q-71 -105 -71 -263q0 -159 70 -263q82 -122 233 -122q136 0 277 111q28 -34 67 -150q-152 -129 -409 -129q-235 0 -377 161q-135 153 -135 392z" />
<glyph unicode="d" horiz-adv-x="1251" d="M84 513q0 242 146 386q134 133 329 133q173 0 284 -145v517h269v-1120q0 -191 41 -284h-282q-27 74 -27 139q-92 -174 -285 -174q-215 0 -350 170q-125 158 -125 378zM358 513q0 -138 54 -245q68 -135 193 -135t193 135q54 107 54 245q0 137 -54 233q-67 119 -193 119 q-127 0 -194 -118q-53 -96 -53 -234z" />
<glyph unicode="e" horiz-adv-x="1152" d="M84 512q0 253 144 403.5t396 150.5q164 0 283 -67q147 -83 147 -238q0 -157 -219 -274q-181 -97 -449 -141q73 -218 269 -218q146 0 283 111q28 -34 67 -150q-158 -129 -382 -129q-250 0 -395 152q-144 149 -144 400zM358 554q0 -39 6 -75q171 35 257 80q143 76 143 206 q0 61 -51 99q-46 34 -109 34q-116 0 -186 -119q-60 -101 -60 -225z" />
<glyph unicode="f" horiz-adv-x="717" d="M140 0v1048q0 168 70 271q82 119 243 119q185 0 292 -110q-30 -66 -89 -121q-16 13 -50 37t-86 24q-56 0 -87 -53q-25 -44 -25 -104v-257h211q1 -63 -41 -173h-170v-681h-268z" />
<glyph unicode="g" horiz-adv-x="1251" d="M84 516q0 221 125 378q135 169 350 169q200 0 285 -159q0 50 27 124h282q-41 -93 -41 -284v-727q0 -223 -170 -346q-138 -100 -318 -100q-234 0 -425 125q14 86 66 151q135 -103 308 -103q117 0 193.5 71.5t76.5 187.5v139q-86 -146 -284 -146q-195 0 -329 133 q-146 145 -146 387zM358 516q0 -138 54 -234q66 -118 193 -118q122 0 190 121q57 100 57 231q0 137 -54 245q-69 134 -193 134t-193 -134q-54 -108 -54 -245z" />
<glyph unicode="h" horiz-adv-x="1224" d="M140 0v1404h269v-505q124 159 329 159q173 0 270 -119q91 -110 91 -287v-652h-267v652q0 238 -186 238q-146 0 -237 -160v-730h-269z" />
<glyph unicode="i" horiz-adv-x="568" d="M140 1304q0 60 42 102t102 42t102.5 -42t42.5 -102t-42.5 -102.5t-102.5 -42.5t-102 42.5t-42 102.5zM154 0v1028h269v-1028h-269z" />
<glyph unicode="j" horiz-adv-x="623" d="M-56 -333q42 93 78 126q32 -32 67 -32q56 0 86 53q25 43 25 103v1111h271v-1048q0 -156 -82 -265q-94 -125 -261 -125q-106 0 -184 77zM194 1304q0 60 42.5 102t102.5 42t102 -42t42 -102t-42 -102.5t-102 -42.5t-102.5 42.5t-42.5 102.5z" />
<glyph unicode="k" horiz-adv-x="1101" d="M140 0v1404h265v-804q189 105 327 428h288q-102 -229 -334 -429q35 -82 144 -259q120 -195 229 -340h-314q-163 283 -229 489q-40 -38 -111 -70v-419h-265z" />
<glyph unicode="l" horiz-adv-x="548" d="M140 0v1404h268v-1404h-268z" />
<glyph unicode="m" horiz-adv-x="1734" d="M140 0v1028h269v-115q86 145 262 145q198 0 287 -178q60 90 112 126q75 52 192 52q163 0 251 -110q82 -101 82 -268v-680h-267v652q0 238 -159 238q-72 0 -118 -59q-43 -55 -43 -129v-702h-277v672q0 218 -169 218q-69 0 -113 -61q-40 -56 -40 -127v-702h-269z" />
<glyph unicode="n" horiz-adv-x="1238" d="M140 0v1028h269v-129q102 159 357 159q333 0 333 -378v-680h-267v652q0 238 -186 238q-175 0 -237 -160v-730h-269z" />
<glyph unicode="o" horiz-adv-x="1281" d="M87 512q0 250 152 402t402 152q249 0 401.5 -152.5t152.5 -401.5q0 -256 -157 -407q-152 -147 -397 -147q-252 0 -403 151t-151 403zM360 513q0 -153 62 -258q76 -126 219 -126t218 127q62 104 62 257t-62 258q-75 127 -218 127q-144 0 -219 -127q-62 -104 -62 -258z" />
<glyph unicode="p" horiz-adv-x="1251" d="M98 1028h282q27 -81 27 -141q93 168 313 168q213 0 335 -152q112 -141 112 -360q0 -263 -155 -413q-134 -129 -320 -129q-173 0 -284 146v-522h-269v1119q0 191 -41 284zM399 504q0 -137 54 -231q66 -115 193 -115t193 119q54 96 54 233q0 374 -247 374q-132 0 -197 -132 q-50 -101 -50 -248z" />
<glyph unicode="q" horiz-adv-x="1251" d="M84 543q0 219 112 360q122 152 335 152q220 0 313 -168q0 60 27 141h282q-41 -93 -41 -284v-1119h-269v522q-111 -146 -284 -146q-186 0 -320 129q-155 150 -155 413zM358 510q0 -137 54 -233q66 -119 193 -119t193 115q54 94 54 231q0 147 -50 248q-65 132 -197 132 q-247 0 -247 -374z" />
<glyph unicode="r" horiz-adv-x="876" d="M98 1028h282q27 -74 27 -138q92 173 285 173q80 0 156 -29q-9 -98 -44 -180q-47 41 -158 41q-123 0 -188 -136q-50 -105 -50 -243v-516h-269v744q0 191 -41 284z" />
<glyph unicode="s" horiz-adv-x="1034" d="M73 89q13 78 66 152q132 -115 331 -115q185 0 185 137q0 129 -200 193q-365 118 -365 312q0 145 135 228q114 70 268 70q279 0 428 -131q-13 -77 -67 -151q-135 115 -302 115q-169 0 -169 -131q0 -116 171 -172q394 -128 394 -332q0 -155 -139 -238q-115 -68 -281 -68 q-307 0 -455 131z" />
<glyph unicode="t" horiz-adv-x="773" d="M140 356v936q105 86 268 112v-376h226q-13 -122 -54 -173h-172v-563q0 -60 25 -103q31 -53 87 -53q49 0 87 23q24 19 49 37q59 -54 89 -120q-107 -110 -292 -110q-162 0 -243 119q-70 102 -70 271z" />
<glyph unicode="u" horiz-adv-x="1238" d="M140 376v652h267v-652q0 -238 186 -238q146 0 237 161v729h269v-1028h-269v129q-93 -159 -330 -159q-172 0 -270 119q-90 110 -90 287z" />
<glyph unicode="v" horiz-adv-x="1075" d="M28 1028h290l184 -791q13 -57 35 -57q21 0 34 57l185 791h291l-233 -814q-29 -101 -100 -162q-75 -63 -177 -63q-213 0 -277 225z" />
<glyph unicode="w" horiz-adv-x="1722" d="M28 1028h279l190 -806q4 -18 20 -18q15 0 18 18l120 638q32 169 206 169t206 -169l119 -638q3 -16 18 -16q17 0 21 18l189 804h280l-224 -811q-61 -220 -246 -220t-220 173l-125 626q-4 18 -19 18q-14 0 -18 -18l-125 -635q-16 -79 -81 -123q-60 -41 -144 -41 q-183 0 -243 220z" />
<glyph unicode="x" horiz-adv-x="1174" d="M45 0l367 486q12 17 12 34q0 20 -15 42l-335 466h282l224 -335l218 335h302l-347 -470q-14 -18 -14 -36t14 -36l370 -486h-296l-245 349l-230 -349h-307z" />
<glyph unicode="y" horiz-adv-x="1006" d="M28 1028h285l167 -699q6 -27 15 -27q10 0 18 30l175 696h290l-367 -1166q-86 -272 -344 -272q-114 0 -192 77q43 93 79 126q45 -32 94 -32q75 0 101 88l37 126z" />
<glyph unicode="z" horiz-adv-x="1109" d="M112 124q0 57 37 100l501 588q10 12 10 22q0 21 -31 21h-486q-5 31 -5 90q0 47 2 83h738q58 0 95.5 -35.5t37.5 -92.5q0 -54 -35 -95l-510 -591q-10 -12 -10 -22q0 -22 31 -22h495q5 -30 5 -86q0 -48 -3 -84h-737q-59 0 -97 33t-38 91z" />
<glyph unicode="{" horiz-adv-x="680" d="M82 561q56 31 94 99.5t38 133.5q0 20 -5 40l-62 243q-14 55 -14 112q0 167 138 256q117 75 294 75h62q12 -45 12 -72q0 -29 -12 -90h-23q-101 0 -160 -53q-61 -56 -61 -156q0 -23 3 -45l42 -303q2 -14 2 -18q0 -60 -55 -134q-48 -64 -94 -88q53 -26 101 -108t48 -142 q0 -4 -2 -18l-42 -294q-4 -28 -4 -45q0 -99 63 -153q59 -51 159 -51h27l6 -90q0 -27 -6 -72h-66q-178 0 -295 77q-137 89 -137 258q0 53 14 110l62 252q5 20 5 40q0 66 -38 134.5t-94 101.5z" />
<glyph unicode="|" horiz-adv-x="258" d="M66 0v1194h129v-1194h-129z" />
<glyph unicode="}" horiz-adv-x="680" d="M41 1448q0 27 12 72h62q177 0 294 -75q138 -89 138 -256q0 -52 -15 -112l-61 -243q-5 -20 -5 -40q0 -65 38 -133.5t94 -99.5q-56 -33 -94 -101.5t-38 -134.5q0 -19 5 -40l61 -252q15 -62 15 -110q0 -169 -137 -258q-117 -77 -295 -77h-66q-6 45 -6 72q0 7 6 90h27 q106 0 165 56q56 54 56 148q0 24 -3 45l-42 294q-2 14 -2 18q0 60 48 142t101 108q-46 24 -94 88q-55 74 -55 134q0 4 2 18l42 303q3 22 3 45q0 100 -61 156q-58 53 -160 53h-23q-12 61 -12 90z" />
<glyph unicode="~" horiz-adv-x="1112" d="M20 471q123 217 305 217q74 0 240 -76q171 -58 209 -58q116 0 209 155l98 -64q-135 -237 -311 -237q-68 0 -134 29l-104 46q-121 70 -202 70q-70 0 -127 -51q-39 -35 -107 -131z" />
<glyph unicode="&#xa1;" horiz-adv-x="623" d="M106 44q78 220 78 430v86q151 -168 144 -453q-3 -139 -45 -274zM106 824l117 119l117 -121l-115 -119z" />
<glyph unicode="&#xa2;" horiz-adv-x="1024" d="M129 452q0 253 157 390q121 105 273 105q20 0 61 -4l140 383h72l-145 -402q101 -45 138 -87q48 -54 48 -115q0 -85 -94 -85q-55 0 -86 38q-18 22 -26 82q-4 31 -17 65l-228 -631q87 -61 163 -61q129 0 202 86q32 38 83 146l30 -13q-47 -188 -163 -292q-90 -81 -221 -81 q-81 0 -162 35l-142 -390h-70l155 427q-81 76 -117 154q-51 110 -51 250zM289 535q0 -137 81 -285l223 615q-28 12 -60 12q-102 0 -162 -74q-82 -100 -82 -268z" />
<glyph unicode="&#xa3;" horiz-adv-x="907" d="M66 0l69 176h60q20 113 20 244q0 20 -1 60.5t-1 60.5h-109l56 147h47q-3 25 -2 70q3 170 116 292q117 126 285 128q107 1 189 -66l-95 -147q-106 67 -196 67q-142 0 -142 -160q0 -32 9 -182h168l-58 -147h-106q-8 -247 -94 -367h518l-62 -176h-671z" />
<glyph unicode="&#xa4;" horiz-adv-x="1024" d="M27 253l144 145q-102 117 -102 282q0 157 102 283l-144 141l56 57l146 -142q118 102 285 102q162 0 280 -102l143 142l58 -57l-144 -141q103 -132 103 -281q0 -154 -103 -284l144 -145l-58 -55l-143 143q-134 -103 -270 -103q-77 0 -158 26q-91 29 -137 77l-146 -143z M150 677q0 -153 104 -256t257 -103t258 104t105 257q0 97 -50 182.5t-135 132t-177 46.5q-155 0 -258.5 -104t-103.5 -259z" />
<glyph unicode="&#xa5;" horiz-adv-x="1024" d="M2 352v73h424v144l-15 36h-409v73h377l-213 496q-31 73 -59 102q-39 41 -105 42v38h442v-38q-121 -8 -121 -62q0 -15 18 -59l214 -519l213 504q21 50 21 75q0 21 -21 41q-13 13 -64 17q-7 1 -27 3v38h346v-38q-59 0 -87 -23q-44 -36 -86 -132l-214 -485h387v-73h-419 l-7 -16v-164h426v-73h-426v-108q0 -113 11 -143q22 -60 119 -60h41v-41h-515v41h32q118 0 137 83q4 18 4 120v108h-424z" />
<glyph unicode="&#xa6;" horiz-adv-x="410" d="M161 300h83v-742h-83v742zM161 680v742h83v-742h-83z" />
<glyph unicode="&#xa7;" horiz-adv-x="907" d="M98 569q0 110 135 226q-108 60 -108 166q0 114 102 183q89 60 209 60q168 0 322 -92l-111 -141q-169 131 -313 131q-37 0 -66 -23q-32 -25 -32 -61q0 -40 54 -73q19 -11 113 -56l230 -109q173 -82 176 -188q2 -76 -133 -219q102 -46 102 -168q0 -112 -117 -181 q-100 -59 -219 -59q-161 0 -313 78l117 156q191 -121 336 -121q33 0 60.5 23t27.5 55q0 43 -125 102l-305 145q-142 68 -142 166zM221 655q0 -59 117 -114l285 -135q50 44 51 92q1 76 -109 129l-280 135q-64 -64 -64 -107z" />
<glyph unicode="&#xa8;" horiz-adv-x="682" d="M57 1228q0 45 31.5 77t76.5 32q46 0 77.5 -31.5t31.5 -77.5q0 -45 -31.5 -76.5t-76.5 -31.5t-77 31.5t-32 76.5zM409 1228q0 45 32 77t77 32t76.5 -32t31.5 -77t-31.5 -76.5t-76.5 -31.5t-77 31.5t-32 76.5z" />
<glyph unicode="&#xa9;" horiz-adv-x="1556" d="M69 678q0 193 97 360.5t265 258t347 90.5q190 0 355 -94q169 -95 260 -259q95 -171 95 -356q0 -192 -95 -356q-96 -167 -262 -259q-170 -94 -353 -94q-194 0 -357 94q-166 96 -259 263.5t-93 351.5zM131 678q0 -176 87 -327t239.5 -236t320.5 -85q176 0 327.5 87 t236 239.5t84.5 321.5q0 177 -88 329t-242 235.5t-318 83.5q-171 0 -324 -87.5t-236 -235.5q-87 -156 -87 -325zM320 672q0 209 146 338q141 125 352 125q70 0 185 -38q24 -8 37 -8q31 0 49 45h40l20 -280h-39q-71 236 -303 236q-161 0 -246 -118q-75 -104 -75 -271 q0 -182 72 -288q85 -125 259 -125q195 0 312 162l37 -19q-139 -203 -383 -203q-198 0 -329 122q-134 125 -134 322z" />
<glyph unicode="&#xaa;" horiz-adv-x="565" d="M-5 911q0 91 129 170q51 31 217 99q0 83 -14 118q-23 58 -92 58q-67 0 -86 -45q-2 -18 -13 -85q-7 -45 -53 -45q-56 0 -56 60q0 78 84 115q63 28 150 28q166 0 205 -95q13 -32 13 -109v-218q0 -53 2 -61q6 -26 24 -26q14 0 58 30v-48q-102 -74 -149 -74q-57 0 -73 95 q-127 -91 -215 -91q-53 0 -92 35.5t-39 88.5zM134 958q0 -36 26.5 -61t62.5 -25q44 0 118 44v226q-207 -69 -207 -184z" />
<glyph unicode="&#xab;" horiz-adv-x="1024" d="M64 464l387 470h57l-244 -470l244 -472h-57zM508 464l394 470h58l-243 -470l243 -472h-58z" />
<glyph unicode="&#xac;" horiz-adv-x="1155" d="M36 797v81h1080v-406h-79v325h-1001z" />
<glyph unicode="&#xad;" horiz-adv-x="1155" d="M36 797v81h1080v-81h-1080z" />
<glyph unicode="&#xae;" horiz-adv-x="1556" d="M69 678q0 193 97 360.5t265 258t347 90.5q190 0 355 -94q169 -95 260 -259q95 -171 95 -356q0 -192 -95 -356q-96 -167 -262 -259q-170 -94 -353 -94q-194 0 -357 94q-166 96 -259 263.5t-93 351.5zM131 678q0 -176 87 -327t239.5 -236t320.5 -85q176 0 327.5 87 t236 239.5t84.5 321.5q0 177 -88 329t-242 235.5t-318 83.5q-171 0 -324 -87.5t-236 -235.5q-87 -156 -87 -325zM374 249v33q78 0 97 45q7 17 7 93v523q0 76 -3 87q-13 48 -89 48v36h386q120 0 201 -51q96 -60 96 -173q0 -164 -222 -222l209 -298q37 -53 68 -73 q18 -12 53 -15v-33h-184l-294 405h-76v-309q11 -63 118 -63v-33h-367zM623 697q195 0 256 88q29 42 29 94q0 86 -57 138.5t-144 52.5q-38 0 -84 -16v-357z" />
<glyph unicode="&#xaf;" horiz-adv-x="1024" d="M-16 1421v84h1059v-84h-1059z" />
<glyph unicode="&#xb0;" horiz-adv-x="797" d="M84 1038q0 133 90 223.5t223 90.5t223.5 -90.5t90.5 -223.5t-90.5 -222t-223.5 -89q-132 0 -222.5 89.5t-90.5 221.5zM170 1038q0 -100 65.5 -165.5t165.5 -65.5t166 65.5t66 165.5q0 101 -65.5 166.5t-166.5 65.5q-100 0 -165.5 -66t-65.5 -166z" />
<glyph unicode="&#xb1;" horiz-adv-x="1251" d="M166 0h954v-123h-954v123zM166 377v123h416v434h123v-434h415v-123h-415v-307h-123v307h-416z" />
<glyph unicode="&#xb2;" horiz-adv-x="567" d="M72 717q31 155 123 266q10 12 97 114q56 66 56 117q0 108 -143 111q-53 1 -92 -10q32 78 53 117q43 12 94 12q90 0 149 -44q66 -49 66 -136q0 -93 -74 -166l-131 -129q-57 -57 -67 -131h313l-49 -121h-395z" />
<glyph unicode="&#xb3;" horiz-adv-x="567" d="M66 727l75 115q46 -39 115 -39q56 0 98 31q47 34 47 88q0 53 -54 86q-45 28 -103 30q-28 1 -66 -10l17 90q118 58 118 144q0 64 -116 67q-32 1 -78 -4q8 23 55 113q28 6 62 6q81 0 138 -36q68 -42 68 -118q0 -107 -108 -160q64 0 114 -39q54 -42 54 -104q0 -127 -84 -214 t-211 -87q-77 0 -141 41z" />
<glyph unicode="&#xb4;" horiz-adv-x="682" d="M236 1045l105 345h224l-295 -345h-34z" />
<glyph unicode="&#xb5;" horiz-adv-x="1180" d="M134 -333q0 47 29 165q19 78 22 104q12 106 12 179v47l-1 28v726h164v-533q0 -144 18 -198q30 -90 124 -90q118 0 236 134v687h165v-654q0 -102 8 -131q14 -51 60 -51q62 0 81 124h42q-17 -232 -198 -232q-141 0 -158 190q-162 -190 -314 -190q-54 0 -92 21 q-27 15 -63 64q-1 -31 -1 -46q0 -79 34 -239q13 -61 13 -104t-25 -75q-27 -35 -69 -35q-87 0 -87 109z" />
<glyph unicode="&#xb6;" horiz-adv-x="928" d="M-13 981q0 109 43 180q119 195 407 195h495v-55h-133v-1743h-72v1743h-187v-1743h-73v1043q-158 7 -243 35q-237 78 -237 345z" />
<glyph unicode="&#xb7;" horiz-adv-x="682" d="M495 703q0 44 30.5 74.5t74.5 30.5t74.5 -30.5t30.5 -74.5q0 -43 -31 -74t-74 -31t-74 31t-31 74z" />
<glyph unicode="&#xb8;" horiz-adv-x="682" d="M187 -340q28 -4 48 -4q48 0 84.5 31.5t36.5 78.5q0 32 -24 53t-56 21q-10 0 -26 -2l111 178h60l-50 -79q125 -32 125 -146q0 -83 -68 -134q-61 -47 -147 -47q-37 0 -94 7v43z" />
<glyph unicode="&#xb9;" horiz-adv-x="567" d="M82 717l65 121h99v428q-69 55 -135 80q111 76 247 106v-614h160l-72 -121h-364z" />
<glyph unicode="&#xba;" horiz-adv-x="635" d="M29 1075q0 138 79.5 223.5t215.5 85.5q126 0 206.5 -83t80.5 -210q0 -128 -86 -216t-214 -88q-124 0 -203 82t-79 206zM170 1153q0 -158 69 -258q39 -57 102 -57q132 0 132 185q0 157 -71 256q-44 62 -106 62q-126 0 -126 -188z" />
<glyph unicode="&#xbb;" horiz-adv-x="1024" d="M64 -8l243 470l-243 472h58l394 -472l-394 -470h-58zM516 -8l244 470l-244 472h57l387 -472l-387 -470h-57z" />
<glyph unicode="&#xbc;" horiz-adv-x="1360" d="M82 471l65 121h99v428q-69 55 -135 80q111 76 247 106v-614h160l-72 -121h-364zM262 -29l780 1221h103l-783 -1221h-100zM811 223q0 194 111 331q107 133 297 185q-27 -56 -27 -110v-324h156l-72 -123h-86v-139l-113 -53v192h-264q0 7 -1 20.5t-1 20.5zM905 305h172v273 q-76 -33 -124 -110.5t-48 -162.5z" />
<glyph unicode="&#xbd;" horiz-adv-x="1360" d="M82 471l65 121h99v428q-69 55 -135 80q111 76 247 106v-614h160l-72 -121h-364zM262 -29l780 1221h103l-783 -1221h-100zM858 0q31 159 123 266l98 114q56 65 56 118q0 108 -144 110q-56 1 -92 -10q33 78 53 117q43 12 95 12q90 0 149 -44q66 -49 66 -136q0 -92 -74 -165 q-33 -33 -131 -130q-57 -57 -68 -131h314l-50 -121h-395z" />
<glyph unicode="&#xbe;" horiz-adv-x="1360" d="M66 481l75 115q46 -39 115 -39q56 0 98 31q47 34 47 88q0 53 -54 86q-45 28 -103 31q-24 1 -66 -11l17 90q118 58 118 144q0 64 -116 67q-32 1 -78 -4q8 23 55 113q28 6 62 6q81 0 138 -36q68 -42 68 -118q0 -107 -108 -159q65 0 114 -39q54 -42 54 -105q0 -127 -84 -214 t-211 -87q-77 0 -141 41zM262 -29l780 1221h103l-783 -1221h-100zM811 223q0 194 111 331q107 133 297 185q-27 -56 -27 -110v-324h156l-72 -123h-86v-139l-113 -53v192h-264q0 7 -1 20.5t-1 20.5zM905 305h172v273q-76 -33 -124 -110.5t-48 -162.5z" />
<glyph unicode="&#xbf;" horiz-adv-x="737" d="M160 87q0 52 70.5 162t70.5 137q0 50 -43 80l115 125q61 -69 61 -123q0 -73 -59 -152q-43 -58 -43 -118q0 -72 52 -118q49 -45 122 -46q31 -1 55 6l-115 -168q-12 -2 -34 -2q-109 0 -177 53q-75 58 -75 164zM252 816l110 127l117 -123l-110 -123z" />
<glyph unicode="&#xd7;" horiz-adv-x="1251" d="M207 80l362 373l-362 366l74 74l362 -367l363 373l67 -74l-356 -372l356 -373l-67 -74l-363 373l-362 -373z" />
<glyph unicode="&#xf7;" horiz-adv-x="1251" d="M166 377v123h954v-123h-954zM526 113q0 46 32.5 78t78.5 32t78.5 -32t32.5 -78t-32.5 -77.5t-78.5 -31.5t-78.5 31.5t-32.5 77.5zM526 762q0 46 32.5 78t78.5 32t78.5 -32t32.5 -78t-32.5 -77.5t-78.5 -31.5t-78.5 31.5t-32.5 77.5z" />
<glyph unicode="&#x2000;" horiz-adv-x="760" />
<glyph unicode="&#x2001;" horiz-adv-x="1520" />
<glyph unicode="&#x2002;" horiz-adv-x="760" />
<glyph unicode="&#x2003;" horiz-adv-x="1520" />
<glyph unicode="&#x2004;" horiz-adv-x="506" />
<glyph unicode="&#x2005;" horiz-adv-x="380" />
<glyph unicode="&#x2006;" horiz-adv-x="253" />
<glyph unicode="&#x2007;" horiz-adv-x="253" />
<glyph unicode="&#x2008;" horiz-adv-x="190" />
<glyph unicode="&#x2009;" horiz-adv-x="304" />
<glyph unicode="&#x200a;" horiz-adv-x="84" />
<glyph unicode="&#x2010;" horiz-adv-x="860" d="M98 516q0 19 4 78h654q6 -55 6 -70q0 -31 -8 -102h-650q-6 51 -6 94z" />
<glyph unicode="&#x2011;" horiz-adv-x="860" d="M98 516q0 19 4 78h654q6 -55 6 -70q0 -31 -8 -102h-650q-6 51 -6 94z" />
<glyph unicode="&#x2012;" horiz-adv-x="860" d="M98 516q0 19 4 78h654q6 -55 6 -70q0 -31 -8 -102h-650q-6 51 -6 94z" />
<glyph unicode="&#x2013;" horiz-adv-x="1024" d="M-17 453v73h1059v-73h-1059z" />
<glyph unicode="&#x2014;" horiz-adv-x="2244" d="M98 516q0 19 12 78h2017q19 -55 19 -70q0 -31 -25 -102h-2004q-19 51 -19 94z" />
<glyph unicode="&#x2018;" horiz-adv-x="430" d="M51 836q113 158 168 396q116 -53 180 -137q-37 -86 -109 -187q-79 -110 -147 -156q-62 26 -92 84z" />
<glyph unicode="&#x2019;" horiz-adv-x="430" d="M51 836q113 158 168 396q116 -53 180 -137q-37 -86 -109 -187q-79 -110 -147 -156q-62 26 -92 84z" />
<glyph unicode="&#x201a;" horiz-adv-x="410" d="M-20 -138q92 128 161 368q114 -55 167 -112q-37 -87 -104 -182q-75 -108 -140 -152q-69 42 -84 78z" />
<glyph unicode="&#x201c;" horiz-adv-x="741" d="M51 836q113 158 168 396q116 -53 180 -137q-37 -86 -109 -187q-79 -110 -147 -156q-62 26 -92 84zM357 836q113 158 168 396q116 -53 180 -137q-41 -97 -124 -205q-77 -100 -133 -138q-62 28 -91 84z" />
<glyph unicode="&#x201d;" horiz-adv-x="741" d="M51 836q113 158 168 396q116 -53 180 -137q-37 -86 -109 -187q-79 -110 -147 -156q-62 26 -92 84zM357 836q113 158 168 396q116 -53 180 -137q-41 -97 -124 -205q-77 -100 -133 -138q-62 28 -91 84z" />
<glyph unicode="&#x201e;" horiz-adv-x="741" d="M51 836q113 158 168 396q116 -53 180 -137q-37 -86 -109 -187q-79 -110 -147 -156q-62 26 -92 84zM357 836q113 158 168 396q116 -53 180 -137q-41 -97 -124 -205q-77 -100 -133 -138q-62 28 -91 84z" />
<glyph unicode="&#x2022;" horiz-adv-x="717" d="M112 677q0 109 71 180t180 71t180 -71t71 -180t-71 -180t-180 -71t-180 71t-71 180z" />
<glyph unicode="&#x2026;" horiz-adv-x="2048" d="M230 83q0 47 32 79t79 32t79 -32t32 -79q0 -46 -32.5 -78.5t-78.5 -32.5t-78.5 32.5t-32.5 78.5zM913 83q0 47 32 79t79 32q46 0 78.5 -32.5t32.5 -78.5t-32.5 -78.5t-78.5 -32.5t-78.5 32.5t-32.5 78.5zM1596 83q0 47 32 79t79 32q46 0 78.5 -32.5t32.5 -78.5 t-32.5 -78.5t-78.5 -32.5t-78.5 32.5t-32.5 78.5z" />
<glyph unicode="&#x202f;" horiz-adv-x="304" />
<glyph unicode="&#x2039;" horiz-adv-x="682" d="M119 464l387 470h57l-244 -470l244 -472h-57z" />
<glyph unicode="&#x203a;" horiz-adv-x="682" d="M115 -8l243 470l-243 472h58l394 -472l-394 -470h-58z" />
<glyph unicode="&#x205f;" horiz-adv-x="380" />
<glyph unicode="&#x2122;" horiz-adv-x="2007" d="M30 1155l21 201h728l22 -201h-34q-20 141 -194 141h-75v-579q0 -76 16 -100q20 -29 90 -32v-36h-374v36q68 6 86 34q14 22 14 97v580h-76q-87 0 -128 -27q-46 -31 -62 -114h-34zM870 549v36q86 0 104 41q9 21 9 90v466q0 108 -37 127q-19 10 -76 10v37h286l273 -572 l265 572h279v-37q-41 -1 -60 -6q-30 -8 -42 -37q-9 -22 -9 -92v-468q0 -80 16 -101q20 -26 95 -30v-36h-398v36q44 1 63 6q34 9 47 38q9 20 9 86v492l-307 -658h-32l-308 649v-482q0 -99 36 -120q19 -11 57 -11h36v-36h-306z" />
<glyph unicode="&#x25fc;" horiz-adv-x="1030" d="M0 0v1030h1030v-1030h-1030z" />
</font>
</defs>
</svg>
